<svg id="Layer_1" data-name="Layer 1" xmlns="http://www.w3.org/2000/svg" viewBox="0 0 182.58 147.43"><title>m&amp;amp;e-icon</title><path d="M184.42,88.48A133.16,133.16,0,0,1,135.74,106c-21.71,3.29-35.07-4.56-40.29-8.58A3.16,3.16,0,0,1,95,92.87l17.5-20.17a3.14,3.14,0,0,1,4.48-.29c3.71,3.32,12,9.44,25.66,12.34,19.22,4.1,38.55-1,38.55-1Z" transform="translate(-62.94 -71.61)" style="fill:#0272bb"/><path d="M191.71,123.18H73.17a10.23,10.23,0,0,0-10.23,10.23v75.4A10.23,10.23,0,0,0,73.17,219H191.71a10.23,10.23,0,0,0,10.23-10.23v-75.4A10.23,10.23,0,0,0,191.71,123.18Zm-64.32,64.26a3.2,3.2,0,0,1-4.93-2.69V158.82a3.2,3.2,0,0,1,4.93-2.69l20.17,13a3.21,3.21,0,0,1,0,5.39Z" transform="translate(-62.94 -71.61)" style="fill:#0272bb"/><path d="M197.28,81a48.25,48.25,0,1,0,48.25,48.25A48.25,48.25,0,0,0,197.28,81ZM197,165m0-18.82" transform="translate(-62.94 -71.61)" style="fill:#02b7f1"/><path d="M191.71,123.18H149.42a48.16,48.16,0,0,0,47.86,54.28c1.57,0,3.13-.08,4.66-.23V133.41A10.23,10.23,0,0,0,191.71,123.18Z" transform="translate(-62.94 -71.61)" style="fill:#0294d6"/></svg>