<svg id="Layer_1" data-name="Layer 1" xmlns="http://www.w3.org/2000/svg" viewBox="0 0 206.18 237.71"><title>Economics-icon</title><path d="M252.82,70.47A5.53,5.53,0,0,0,248,65.23,195.5,195.5,0,0,1,196.55,55a153,153,0,0,1-42-22.25,5.17,5.17,0,0,0-6.48,0A153,153,0,0,1,106,55,195.52,195.52,0,0,1,54.6,65.23a5.54,5.54,0,0,0-4.86,5.24C47.8,88.69,43.37,152,69.46,193.37c26.81,42.51,69.1,69.15,79.47,75.26a4.51,4.51,0,0,0,4.7,0c10.37-6.11,52.67-32.75,79.48-75.26C259.19,152,254.76,88.69,252.82,70.47Z" transform="translate(-48.19 -31.58)" style="fill:#0272bb"/><path d="M185.11,159.2q1,16-9.87,26-8.81,8-23.31,9.07a4.78,4.78,0,0,1-.53,0q-17-.08-29.16-9.94a5.49,5.49,0,0,1-.26-8.23l11.76-11.16a5.44,5.44,0,0,1,6.68-.7,19.36,19.36,0,0,0,5.78,2.48,14.76,14.76,0,0,0,4.61.64c2.84-.19,4.9-.87,6.18-2.06.94-.85,1.37-2.32,1.28-4.4a3.1,3.1,0,0,0-1.21-2.34q-2.79-1.89-10.07-3.28a5.29,5.29,0,0,1-.57-.15l-12.19-3.77a5.4,5.4,0,0,1-.76-.29q-17.46-8.25-18.59-26.59a33.06,33.06,0,0,1,30.75-34.87,43.29,43.29,0,0,1,13.63,1.28,44.37,44.37,0,0,1,17.45,8.57,5.5,5.5,0,0,1,.28,8.26l-11.73,11.09a5.47,5.47,0,0,1-6.84.58,16.73,16.73,0,0,0-10.8-2.94,6.21,6.21,0,0,0-4.34,2.06,5.86,5.86,0,0,0-1.49,4.33q.21,4,9.62,5.86l.36.09,12.61,3.47a6.28,6.28,0,0,1,.69.24Q184,140.33,185.11,159.2Z" transform="translate(-48.19 -31.58)" style="fill:#02b7f1"/><rect x="93.99" y="150.45" width="15.63" height="30.32" rx="7.29" style="fill:#02b7f1"/><rect x="93.99" y="45.14" width="15.63" height="30.32" rx="7.29" style="fill:#02b7f1"/><path d="M157.81,131.37l-6.57-2.58a1.25,1.25,0,0,0-.25-.09q-6.59-1.84-6.74-5.86a7.47,7.47,0,0,1,1.05-4.33,4,4,0,0,1,3-2.06,9.32,9.32,0,0,1,7.57,2.94,3,3,0,0,0,1.91.92V91.41c-.43-.18-.88-.36-1.32-.52a21.68,21.68,0,0,0-9.55-1.28,17.59,17.59,0,0,0-4.75,1.1v62.08l5.3,2.34a3.25,3.25,0,0,0,.4.15q5.1,1.4,7.05,3.28a3.63,3.63,0,0,1,.85,2.34c.07,2.08-.23,3.55-.9,4.4a5.77,5.77,0,0,1-4.32,2.06,7.47,7.47,0,0,1-3.23-.64,11.91,11.91,0,0,1-4.05-2.48,3,3,0,0,0-1.1-.68v29.15a25.55,25.55,0,0,0,8.79,1.56,2.3,2.3,0,0,0,.37,0,24.71,24.71,0,0,0,6.46-1.53Z" transform="translate(-48.19 -31.58)" style="fill:#0294d6"/></svg>