<svg id="Layer_1" data-name="Layer 1" xmlns="http://www.w3.org/2000/svg" viewBox="0 0 215.01 200.2"><title>Collaborate-icon</title><circle cx="174.97" cy="40.04" r="40.04" style="fill:#02b7f1"/><circle cx="40.04" cy="100.1" r="40.04" style="fill:#0272bb"/><circle cx="174.97" cy="160.16" r="40.04" style="fill:#02b7f1"/><path d="M213.65,219.69a7.05,7.05,0,0,1-3-.65L75.78,156.35a7,7,0,0,1,.1-12.75l134.93-60a7,7,0,1,1,5.69,12.79L95.63,150.14l121,56.2a7,7,0,0,1-2.95,13.35Z" transform="translate(-38.69 -49.9)" style="fill:#02b7f1"/><path d="M117.43,160l-21.8-10.13,22-9.77a39.9,39.9,0,0,0-5.69-12.79l-36,16a7,7,0,0,0-.1,12.74l35.74,16.61A39.74,39.74,0,0,0,117.43,160Z" transform="translate(-38.69 -49.9)" style="fill:#0294d6"/><path d="M216.6,206.34l-37.07-17.22a39.78,39.78,0,0,0-5.14,13L210.7,219a7,7,0,0,0,5.9-12.7Z" transform="translate(-38.69 -49.9)" style="fill:#0294d6"/><path d="M210.81,83.55l-36,16a39.78,39.78,0,0,0,5.69,12.79l36-16a7,7,0,1,0-5.69-12.79Z" transform="translate(-38.69 -49.9)" style="fill:#0294d6"/></svg>