<svg id="Layer_1" data-name="Layer 1" xmlns="http://www.w3.org/2000/svg" viewBox="0 0 202.59 141.49"><title>Surveillance-icon</title><path d="M239.27,103.62,97.13,79.22A8.33,8.33,0,0,0,87.53,86l-8,46.64a8.3,8.3,0,0,0,6.79,9.6l142.13,24.4a8.32,8.32,0,0,0,9.6-6.79l8-46.64A8.31,8.31,0,0,0,239.27,103.62Zm-136.79,3.19a9.7,9.7,0,1,1,9.7-9.7A9.69,9.69,0,0,1,102.48,106.81Z" transform="translate(-48.26 -79.1)" style="fill:#0272bb"/><path d="M116.36,197.64H62.55a8,8,0,0,1,0-16h45.81v-34.1a8,8,0,0,1,16,0v42.1A8,8,0,0,1,116.36,197.64Z" transform="translate(-48.26 -79.1)" style="fill:#02b7f1"/><rect x="233.44" y="117.67" width="15.89" height="29.86" rx="5.77" transform="translate(-22.35 -118.03) rotate(9.74)" style="fill:#02b7f1"/><path d="M48.26,161.82A3.16,3.16,0,0,1,52,158.73c11.91,2.29,21,15.25,21,30.91s-9.13,28.62-21,30.9a3.16,3.16,0,0,1-3.76-3.09Z" transform="translate(-48.26 -79.1)" style="fill:#02b7f1"/><path d="M240.16,147.52l5.05-29.43-3.44-.59a5.77,5.77,0,0,0-6.66,4.71L232,140.27a5.77,5.77,0,0,0,4.71,6.66Z" transform="translate(-48.26 -79.1)" style="fill:#0294d6"/><circle cx="68.1" cy="67.15" r="21.04" style="fill:#02b7f1"/><path d="M116.36,125.22a21,21,0,0,0-20.88,18.6l41.38,7.11a21,21,0,0,0-20.5-25.71Z" transform="translate(-48.26 -79.1)" style="fill:#0294d6"/><path d="M73.06,189.64a39.31,39.31,0,0,0-.82-8H62.55a8,8,0,0,0,0,16h9.69A39.46,39.46,0,0,0,73.06,189.64Z" transform="translate(-48.26 -79.1)" style="fill:#0294d6"/></svg>