<svg id="Layer_1" data-name="Layer 1" xmlns="http://www.w3.org/2000/svg" viewBox="0 0 201.76 143.2"><title>EnterpriseBackup-icon</title><path d="M197.93,180.9c-5.29,2.93-18.63,9.1-47.93,9.1s-42.64-6.17-47.93-9.1c-1.3-.72-3.07,0-3.07,1.27v15.37a1.38,1.38,0,0,0,.34.89c1.86,2.14,12.07,11.45,50.66,11.45s48.8-9.31,50.66-11.45a1.38,1.38,0,0,0,.34-.89V182.17C201,180.9,199.23,180.18,197.93,180.9Z" transform="translate(-49.12 -66.68)" style="fill:#02b7f1"/><path d="M86.29,190.62H210.85a21.34,21.34,0,0,0,7.34-1.3c9-3.3,29.74-13.64,32.43-39.35,3.76-35.88-34.16-46.13-34.16-46.13s-4.58-30.71-43.39-36.21c-45.78-6.49-61.84,22.21-61.84,22.21s-19.13-5.13-33.82,9.9-12.64,32.12-12.64,32.12A23.86,23.86,0,0,0,50.08,148.6C47,161.58,49.4,190.62,86.29,190.62Z" transform="translate(-49.12 -66.68)" style="fill:#0272bb"/><ellipse cx="100.88" cy="80.57" rx="51" ry="14.93" style="fill:#0294d6"/><path d="M197.93,156.63c-5.29,2.94-18.63,9.11-47.93,9.11s-42.64-6.17-47.93-9.11c-1.3-.71-3.07,0-3.07,1.28v15.37a1.35,1.35,0,0,0,.34.88c1.86,2.14,12.07,11.46,50.66,11.46s48.8-9.32,50.66-11.46a1.35,1.35,0,0,0,.34-.88V157.91C201,156.64,199.23,155.92,197.93,156.63Z" transform="translate(-49.12 -66.68)" style="fill:#0294d6"/><path d="M201,190.62v-8.45c0-1.27-1.77-2-3.07-1.27-5.29,2.93-18.63,9.1-47.93,9.1s-42.64-6.17-47.93-9.1c-1.3-.72-3.07,0-3.07,1.27v8.45Z" transform="translate(-49.12 -66.68)" style="fill:#0294d6"/></svg>