<svg id="Layer_1" data-name="Layer 1" xmlns="http://www.w3.org/2000/svg" viewBox="0 0 218.87 173.94"><title>Accelerate-icon</title><path d="M160.3,77a87,87,0,1,0,87,87A87,87,0,0,0,160.3,77Z" transform="translate(-28.41 -76.98)" style="fill:#0272bb"/><rect x="27.61" y="27.03" width="77.12" height="13.1" rx="6.55" style="fill:#02b7f1"/><rect x="148.15" y="140.1" width="77.12" height="13.1" rx="6.55" transform="translate(-78.89 79.99) rotate(-40.64)" style="fill:#02b7f1"/><rect x="9.16" y="51.6" width="77.12" height="13.1" rx="6.55" style="fill:#02b7f1"/><rect y="77.26" width="77.12" height="13.1" rx="6.55" style="fill:#02b7f1"/><path d="M126.59,104H97.28A86.93,86.93,0,0,0,87,117.12h39.58a6.55,6.55,0,0,0,0-13.1Z" transform="translate(-28.41 -76.98)" style="fill:#0294d6"/><path d="M76.21,141.68h31.93a6.55,6.55,0,1,0,0-13.1H80.82A86.12,86.12,0,0,0,76.21,141.68Z" transform="translate(-28.41 -76.98)" style="fill:#0294d6"/><path d="M105.53,160.79A6.55,6.55,0,0,0,99,154.24H73.87a89,89,0,0,0-.54,9.71c0,1.14,0,2.27.07,3.4H99A6.56,6.56,0,0,0,105.53,160.79Z" transform="translate(-28.41 -76.98)" style="fill:#0294d6"/></svg>