<svg id="Layer_1" data-name="Layer 1" xmlns="http://www.w3.org/2000/svg" viewBox="0 0 233.17 176.54"><title>Adaptable-icon</title><circle cx="26.54" cy="14.76" r="14.76" style="fill:#0272bb"/><path d="M106.26,111.57a4,4,0,0,1-4-4V76H70.16a4,4,0,0,1,0-8h36.1a4,4,0,0,1,4,4v35.57A4,4,0,0,1,106.26,111.57Z" transform="translate(-35.68 -57.24)" style="fill:#02b7f1"/><path d="M204.5,107.68C202,97.53,178.65,91.79,150.18,91.79s-51.83,5.74-54.32,15.89a1.45,1.45,0,0,0-.23.77v77.72a1.48,1.48,0,0,0,.36,1,9,9,0,0,0,.72.77c5,7.21,27.05,12.65,53.47,12.65s48.45-5.44,53.47-12.65a9,9,0,0,0,.72-.77,1.48,1.48,0,0,0,.36-1V108.45A1.45,1.45,0,0,0,204.5,107.68Z" transform="translate(-35.68 -57.24)" style="fill:#02b7f1"/><circle cx="215.1" cy="32.48" r="18.06" style="fill:#0272bb"/><circle cx="21.49" cy="147.25" r="21.49" style="fill:#0272bb"/><circle cx="206.14" cy="153.69" r="22.84" style="fill:#0272bb"/><ellipse cx="114.5" cy="50.33" rx="54.55" ry="15.78" style="fill:#0294d6"/><path d="M226.43,216H188.25a4,4,0,0,1-4-4V172.12a4,4,0,0,1,8,0V208h34.18a4,4,0,0,1,0,8Z" transform="translate(-35.68 -57.24)" style="fill:#02b7f1"/><path d="M226.43,208h-7.26a24.28,24.28,0,0,0-.2,3,23.15,23.15,0,0,0,.56,5h6.9a4,4,0,0,0,0-8Z" transform="translate(-35.68 -57.24)" style="fill:#0294d6"/><path d="M66.16,72a4,4,0,0,0,4,4h6.25a14.57,14.57,0,0,0,0-8H70.16A4,4,0,0,0,66.16,72Z" transform="translate(-35.68 -57.24)" style="fill:#0294d6"/><path d="M250.52,127.35h-52a4,4,0,0,1,0-8h48v-20a4,4,0,0,1,8,0v24A4,4,0,0,1,250.52,127.35Z" transform="translate(-35.68 -57.24)" style="fill:#02b7f1"/><path d="M250.52,95.35a4,4,0,0,0-4,4v7.91a18.14,18.14,0,0,0,4.26.52,17.78,17.78,0,0,0,3.74-.39v-8A4,4,0,0,0,250.52,95.35Z" transform="translate(-35.68 -57.24)" style="fill:#0294d6"/><path d="M57.17,194.31a4,4,0,0,1-4-4V158a4,4,0,0,1,4-4h47.29a4,4,0,1,1,0,8H61.17v28.28A4,4,0,0,1,57.17,194.31Z" transform="translate(-35.68 -57.24)" style="fill:#02b7f1"/><path d="M57.17,183a21,21,0,0,0-4,.39v6.92a4,4,0,0,0,8,0v-6.92A21.19,21.19,0,0,0,57.17,183Z" transform="translate(-35.68 -57.24)" style="fill:#0294d6"/></svg>