<svg xmlns="http://www.w3.org/2000/svg" xmlns:xlink="http://www.w3.org/1999/xlink" viewBox="0 0 166.37 151.92"><defs><linearGradient id="linear-gradient" x1="83.18" y1="151.92" x2="83.18" gradientUnits="userSpaceOnUse"><stop offset="0" stop-color="#006dad"/><stop offset="1" stop-color="#006dad"/></linearGradient></defs><title>Q-icon</title><g id="Layer_2" data-name="Layer 2"><g id="svg4671"><path id="path4052" d="M76.25,129.61c-33.38,0-41.58-25-41.58-53.94,0-29.09,8.2-53,41.58-53,31.66,0,40.83,23.94,40.83,53C117.08,104.31,109.32,129.61,76.25,129.61Zm51,.47c0-.61,0-.88,0-1.14,13.59-7.36,24.25-15.18,24.25-53.27C151.51,27,134.82,0,76.25,0,17.08,0,0,27.94,0,75.67c0,51.3,19.53,76.25,76.25,76.25h90.12V130.08H127.25" style="fill:url(#linear-gradient)"/></g></g></svg>