<?xml version="1.0" encoding="utf-8"?><svg xmlns="http://www.w3.org/2000/svg" xmlns:xlink="http://www.w3.org/1999/xlink"><symbol viewBox="0 0 80 80" id="PlayButton-icon" xmlns="http://www.w3.org/2000/svg"><path d="M40 0A40 40 0 0 0 0 40a40 40 0 0 0 40 40 40 40 0 0 0 40-40A40 40 0 0 0 40 0zm13.7 40.84L32.42 54.01a.81.81 0 0 1-.81 0 .81.81 0 0 1-.41-.7V27.04a.81.81 0 0 1 .41-.7.81.81 0 0 1 .81 0L53.7 39.5a.83.83 0 0 1 .38.68.8.8 0 0 1-.38.66z" fill="#fff"/></symbol><symbol viewBox="0 0 166.37 151.92" id="Q-icon" xmlns="http://www.w3.org/2000/svg"><defs><linearGradient id="ba" x1="83.18" y1="151.92" x2="83.18" gradientUnits="userSpaceOnUse"><stop offset="0" stop-color="#006dad"/><stop offset="1" stop-color="#006dad"/></linearGradient></defs><path d="M76.25 129.61c-33.38 0-41.58-25-41.58-53.94 0-29.09 8.2-53 41.58-53 31.66 0 40.83 23.94 40.83 53 0 28.64-7.76 53.94-40.83 53.94zm51 .47v-1.14c13.59-7.36 24.25-15.18 24.25-53.27C151.51 27 134.82 0 76.25 0 17.08 0 0 27.94 0 75.67c0 51.3 19.53 76.25 76.25 76.25h90.12v-21.84h-39.12" fill="url(#ba)" data-name="Layer 2"/></symbol><symbol viewBox="0 0 182.58 147.43" id="area-1" xmlns="http://www.w3.org/2000/svg"><path d="M121.48 16.87A133.16 133.16 0 0 1 72.8 34.39c-21.71 3.29-35.07-4.56-40.29-8.58a3.16 3.16 0 0 1-.45-4.55l17.5-20.17A3.14 3.14 0 0 1 54.04.8c3.71 3.32 12 9.44 25.66 12.34 19.22 4.1 38.55-1 38.55-1zm7.29 34.7H10.23A10.23 10.23 0 0 0 0 61.8v75.4a10.23 10.23 0 0 0 10.23 10.19h118.54A10.23 10.23 0 0 0 139 137.16v-75.4a10.23 10.23 0 0 0-10.23-10.19zm-64.32 64.26a3.2 3.2 0 0 1-4.93-2.69V87.21a3.2 3.2 0 0 1 4.93-2.69l20.17 13a3.21 3.21 0 0 1 0 5.39z" fill="#0272bb"/><path d="M134.34 9.39a48.25 48.25 0 1 0 48.25 48.25 48.25 48.25 0 0 0-48.25-48.25zm-.28 65.18" fill="#02b7f1"/><path d="M128.77 51.57H86.48a48.16 48.16 0 0 0 47.86 54.28c1.57 0 3.13-.08 4.66-.23V61.8a10.23 10.23 0 0 0-10.23-10.23z" fill="#0294d6"/></symbol><symbol viewBox="0 0 202.59 141.49" id="area-2" xmlns="http://www.w3.org/2000/svg"><path d="M191.01 24.52L48.87.12a8.33 8.33 0 0 0-9.6 6.78l-8 46.64a8.3 8.3 0 0 0 6.79 9.6l142.13 24.4a8.32 8.32 0 0 0 9.6-6.79l8-46.64a8.31 8.31 0 0 0-6.78-9.59zM54.22 27.71a9.7 9.7 0 1 1 9.7-9.7 9.69 9.69 0 0 1-9.7 9.7z" fill="#0272bb"/><path d="M68.1 118.54H14.29a8 8 0 0 1 0-16H60.1v-34.1a8 8 0 0 1 16 0v42.1a8 8 0 0 1-8 8z" fill="#02b7f1"/><rect x="233.44" y="117.67" width="15.89" height="29.86" rx="5.77" transform="rotate(9.74 681.466 -190.173)" fill="#02b7f1"/><path d="M0 82.72a3.16 3.16 0 0 1 3.74-3.09c11.91 2.29 21 15.25 21 30.91s-9.13 28.62-21 30.9a3.16 3.16 0 0 1-3.76-3.09z" fill="#02b7f1"/><path d="M191.9 68.42l5.05-29.43-3.44-.59a5.77 5.77 0 0 0-6.66 4.71l-3.11 18.06a5.77 5.77 0 0 0 4.71 6.66z" fill="#0294d6"/><circle cx="68.1" cy="67.15" r="21.04" fill="#02b7f1"/><path d="M68.1 46.12a21 21 0 0 0-20.88 18.6l41.38 7.11a21 21 0 0 0-20.5-25.71zm-43.3 64.42a39.31 39.31 0 0 0-.82-8h-9.69a8 8 0 0 0 0 16h9.69a39.46 39.46 0 0 0 .82-8z" fill="#0294d6"/></symbol><symbol viewBox="0 0 201.76 143.2" id="area-3" xmlns="http://www.w3.org/2000/svg"><path d="M148.81 114.22c-5.29 2.93-18.63 9.1-47.93 9.1s-42.64-6.17-47.93-9.1c-1.3-.72-3.07 0-3.07 1.27v15.37a1.38 1.38 0 0 0 .34.89c1.86 2.14 12.07 11.45 50.66 11.45s48.8-9.31 50.66-11.45a1.38 1.38 0 0 0 .34-.89v-15.37c0-1.27-1.77-1.99-3.07-1.27z" fill="#02b7f1"/><path d="M37.17 123.94h124.56a21.34 21.34 0 0 0 7.34-1.3c9-3.3 29.74-13.64 32.43-39.35 3.76-35.88-34.16-46.13-34.16-46.13S162.76 6.45 123.95.95C78.17-5.54 62.11 23.16 62.11 23.16s-19.13-5.13-33.82 9.9-12.64 32.12-12.64 32.12A23.86 23.86 0 0 0 .96 81.92c-3.08 12.98-.68 42.02 36.21 42.02z" fill="#0272bb"/><ellipse cx="100.88" cy="80.57" rx="51" ry="14.93" fill="#0294d6"/><path d="M148.81 89.95c-5.29 2.94-18.63 9.11-47.93 9.11s-42.64-6.17-47.93-9.11c-1.3-.71-3.07 0-3.07 1.28v15.37a1.35 1.35 0 0 0 .34.88c1.86 2.14 12.07 11.46 50.66 11.46s48.8-9.32 50.66-11.46a1.35 1.35 0 0 0 .34-.88V91.23c0-1.27-1.77-1.99-3.07-1.28z" fill="#0294d6"/><path d="M151.88 123.94v-8.45c0-1.27-1.77-2-3.07-1.27-5.29 2.93-18.63 9.1-47.93 9.1s-42.64-6.17-47.93-9.1c-1.3-.72-3.07 0-3.07 1.27v8.45z" fill="#0294d6"/></symbol><symbol viewBox="0 0 218.87 173.94" id="benefit-1" xmlns="http://www.w3.org/2000/svg"><path d="M131.89.02a87 87 0 1 0 87 87 87 87 0 0 0-87-87z" fill="#0272bb"/><rect x="27.61" y="27.03" width="77.12" height="13.1" rx="6.55" fill="#02b7f1"/><rect x="148.15" y="140.1" width="77.12" height="13.1" rx="6.55" transform="rotate(-40.64 68.56 146.514)" fill="#02b7f1"/><rect x="9.16" y="51.6" width="77.12" height="13.1" rx="6.55" fill="#02b7f1"/><rect y="77.26" width="77.12" height="13.1" rx="6.55" fill="#02b7f1"/><path d="M98.18 27.02H68.87a86.93 86.93 0 0 0-10.28 13.12h39.58a6.55 6.55 0 0 0 0-13.1zM47.8 64.7h31.93a6.55 6.55 0 1 0 0-13.1H52.41a86.12 86.12 0 0 0-4.61 13.1zm29.32 19.11a6.55 6.55 0 0 0-6.53-6.55H45.46a89 89 0 0 0-.54 9.71c0 1.14 0 2.27.07 3.4h25.6a6.56 6.56 0 0 0 6.53-6.56z" fill="#0294d6"/></symbol><symbol viewBox="0 0 215.01 200.2" id="benefit-2" xmlns="http://www.w3.org/2000/svg"><circle cx="174.97" cy="40.04" r="40.04" fill="#02b7f1"/><circle cx="40.04" cy="100.1" r="40.04" fill="#0272bb"/><circle cx="174.97" cy="160.16" r="40.04" fill="#02b7f1"/><path d="M174.96 169.79a7.05 7.05 0 0 1-3-.65L37.09 106.45a7 7 0 0 1 .1-12.75l134.93-60a7 7 0 1 1 5.69 12.79L56.94 100.24l121 56.2a7 7 0 0 1-2.95 13.35z" fill="#02b7f1"/><path d="M78.74 110.1l-21.8-10.13 22-9.77a39.9 39.9 0 0 0-5.69-12.79l-36 16a7 7 0 0 0-.1 12.74l35.74 16.61a39.74 39.74 0 0 0 5.85-12.66zm99.17 46.34l-37.07-17.22a39.78 39.78 0 0 0-5.14 13l36.31 16.88a7.002 7.002 0 0 0 5.9-12.7zm-5.79-122.79l-36 16a39.78 39.78 0 0 0 5.69 12.79l36-16a7 7 0 1 0-5.69-12.79z" fill="#0294d6"/></symbol><symbol viewBox="0 0 233.17 176.54" id="benefit-3" xmlns="http://www.w3.org/2000/svg"><circle cx="26.54" cy="14.76" r="14.76" fill="#0272bb"/><path d="M70.58 54.33a4 4 0 0 1-4-4V18.76h-32.1a4 4 0 0 1 0-8h36.1a4 4 0 0 1 4 4v35.57a4 4 0 0 1-4 4z" fill="#02b7f1"/><path d="M168.82 50.44c-2.5-10.15-25.85-15.89-54.32-15.89s-51.83 5.74-54.32 15.89a1.45 1.45 0 0 0-.23.77v77.72a1.48 1.48 0 0 0 .36 1 9 9 0 0 0 .72.77c5 7.21 27.05 12.65 53.47 12.65s48.45-5.44 53.47-12.65a9 9 0 0 0 .72-.77 1.48 1.48 0 0 0 .36-1V51.21a1.45 1.45 0 0 0-.23-.77z" fill="#02b7f1"/><circle cx="215.1" cy="32.48" r="18.06" fill="#0272bb"/><circle cx="21.49" cy="147.25" r="21.49" fill="#0272bb"/><circle cx="206.14" cy="153.69" r="22.84" fill="#0272bb"/><ellipse cx="114.5" cy="50.33" rx="54.55" ry="15.78" fill="#0294d6"/><path d="M190.75 158.76h-38.18a4 4 0 0 1-4-4v-39.88a4 4 0 0 1 8 0v35.88h34.18a4 4 0 0 1 0 8z" fill="#02b7f1"/><path d="M190.75 150.76h-7.26a24.28 24.28 0 0 0-.2 3 23.15 23.15 0 0 0 .56 5h6.9a4 4 0 0 0 0-8zm-160.27-136a4 4 0 0 0 4 4h6.25a14.57 14.57 0 0 0 0-8h-6.25a4 4 0 0 0-4 4z" fill="#0294d6"/><path d="M214.84 70.11h-52a4 4 0 0 1 0-8h48v-20a4 4 0 0 1 8 0v24a4 4 0 0 1-4 4z" fill="#02b7f1"/><path d="M214.84 38.11a4 4 0 0 0-4 4v7.91a18.14 18.14 0 0 0 4.26.52 17.78 17.78 0 0 0 3.74-.39v-8a4 4 0 0 0-4-4.04z" fill="#0294d6"/><path d="M21.49 137.07a4 4 0 0 1-4-4v-32.31a4 4 0 0 1 4-4h47.29a4 4 0 1 1 0 8H25.49v28.28a4 4 0 0 1-4 4.03z" fill="#02b7f1"/><path d="M21.49 125.76a21 21 0 0 0-4 .39v6.92a4 4 0 0 0 8 0v-6.92a21.19 21.19 0 0 0-4-.39z" fill="#0294d6"/></symbol><symbol viewBox="0 0 206.18 237.71" id="benefit-4" xmlns="http://www.w3.org/2000/svg"><path d="M204.63 38.89a5.53 5.53 0 0 0-4.82-5.24 195.5 195.5 0 0 1-51.45-10.23 153 153 0 0 1-42-22.25 5.17 5.17 0 0 0-6.48 0 153 153 0 0 1-42.07 22.25 195.52 195.52 0 0 1-51.4 10.23 5.54 5.54 0 0 0-4.86 5.24c-1.94 18.22-6.37 81.53 19.72 122.9 26.81 42.51 69.1 69.15 79.47 75.26a4.51 4.51 0 0 0 4.7 0c10.37-6.11 52.67-32.75 79.48-75.26 26.08-41.37 21.65-104.68 19.71-122.9z" fill="#0272bb"/><path d="M136.92 127.62q1 16-9.87 26-8.81 8-23.31 9.07a4.78 4.78 0 0 1-.53 0q-17-.08-29.16-9.94a5.49 5.49 0 0 1-.26-8.23l11.76-11.16a5.44 5.44 0 0 1 6.68-.7 19.36 19.36 0 0 0 5.78 2.48 14.76 14.76 0 0 0 4.61.64c2.84-.19 4.9-.87 6.18-2.06.94-.85 1.37-2.32 1.28-4.4a3.1 3.1 0 0 0-1.21-2.34q-2.79-1.89-10.07-3.28a5.29 5.29 0 0 1-.57-.15l-12.19-3.77a5.4 5.4 0 0 1-.76-.29q-17.46-8.25-18.59-26.59a33.06 33.06 0 0 1 30.75-34.87 43.29 43.29 0 0 1 13.63 1.28 44.37 44.37 0 0 1 17.45 8.57 5.5 5.5 0 0 1 .28 8.26l-11.73 11.09a5.47 5.47 0 0 1-6.84.58 16.73 16.73 0 0 0-10.8-2.94 6.21 6.21 0 0 0-4.34 2.06 5.86 5.86 0 0 0-1.49 4.33q.21 4 9.62 5.86l.36.09 12.61 3.47a6.28 6.28 0 0 1 .69.24q18.93 7.83 20.04 26.7z" fill="#02b7f1"/><rect x="93.99" y="150.45" width="15.63" height="30.32" rx="7.29" fill="#02b7f1"/><rect x="93.99" y="45.14" width="15.63" height="30.32" rx="7.29" fill="#02b7f1"/><path d="M109.62 99.79l-6.57-2.58a1.25 1.25 0 0 0-.25-.09q-6.59-1.84-6.74-5.86a7.47 7.47 0 0 1 1.05-4.33 4 4 0 0 1 3-2.06 9.32 9.32 0 0 1 7.57 2.94 3 3 0 0 0 1.91.92v-28.9c-.43-.18-.88-.36-1.32-.52a21.68 21.68 0 0 0-9.55-1.28 17.59 17.59 0 0 0-4.75 1.1v62.08l5.3 2.34a3.25 3.25 0 0 0 .4.15q5.1 1.4 7.05 3.28a3.63 3.63 0 0 1 .85 2.34c.07 2.08-.23 3.55-.9 4.4a5.77 5.77 0 0 1-4.32 2.06 7.47 7.47 0 0 1-3.23-.64 11.91 11.91 0 0 1-4.05-2.48 3 3 0 0 0-1.1-.68v29.15a25.55 25.55 0 0 0 8.79 1.56 2.3 2.3 0 0 0 .37 0 24.71 24.71 0 0 0 6.46-1.53z" fill="#0294d6"/></symbol><symbol viewBox="0 0 309.29 238.7" id="help" xmlns="http://www.w3.org/2000/svg"><path d="M85.92 153.45q0 22.92 15 42.63t40.54 31.17q25.5 11.46 56.11 11.46 32.22 0 59.61-13.32 23.08 13.32 47.78 13.32a3.8 3.8 0 0 0 3.76-2.67 4.1 4.1 0 0 0-1.07-4.79 63.71 63.71 0 0 1-6.44-8.53 87.76 87.76 0 0 1-12.35-20.25q20.4-21.84 20.4-49 0-22.9-15-42.62t-40.55-31.17q-25.5-11.46-56.11-11.46t-56.11 11.46q-25.5 11.46-40.54 31.17t-15.03 42.6z" fill="#02b7f1"/><path d="M223.38 85.25q0 22.92-15 42.63t-40.54 31.17q-25.5 11.46-56.11 11.46a134.4 134.4 0 0 1-59.67-13.33q-23.1 13.32-47.79 13.33a3.81 3.81 0 0 1-3.76-2.67 4.1 4.1 0 0 1 1.07-4.79 64.22 64.22 0 0 0 6.48-8.53 88.11 88.11 0 0 0 12.35-20.25Q-.01 112.43 0 85.27q0-22.9 15-42.62t40.54-31.17Q81.04.02 111.65.02t56.11 11.46q25.56 11.44 40.58 31.15t15.04 42.62z" fill="#0272bb"/><path d="M167.8 159.05q25.52-11.46 40.54-31.13t15-42.63a66.33 66.33 0 0 0-1.74-15.14 149.2 149.2 0 0 0-24-1.91q-30.6 0-56.11 11.46t-40.54 31.17q-15 19.71-15 42.62a66.36 66.36 0 0 0 1.72 15.08 144.55 144.55 0 0 0 24.05 2q30.57-.06 56.08-11.52z" fill="#0294d6"/></symbol></svg>